HIERARCHY
ROOT Hips
{
	OFFSET 0.000000 87.230942 0.000000
	CHANNELS 6 Xposition Yposition Zposition Xrotation Yrotation Zrotation
	JOINT Pelvis
	{
		OFFSET 0.000000 0.000000 0.000000
		CHANNELS 3 Xrotation Yrotation Zrotation
		JOINT LeftUpLeg
		{
			OFFSET 12.017000 -9.376404 -2.439400
			CHANNELS 3 Xrotation Yrotation Zrotation
			JOINT LeftLeg
			{
				OFFSET -0.007312 -32.846973 2.110600
				CHANNELS 3 Xrotation Yrotation Zrotation
				JOINT LeftFoot
				{
					OFFSET 0.007312 -32.065170 -0.570400
					CHANNELS 3 Xrotation Yrotation Zrotation
					JOINT LeftToeBase
					{
						OFFSET 0.728300 -11.045900 13.180700
						CHANNELS 3 Xrotation Yrotation Zrotation
						End Site
						{
							OFFSET 0.000000 17.212589 0.000000
						}
					}
				}
				JOINT LeftPantLeg
				{
					OFFSET 0.002788 -16.709013 -3.143600
					CHANNELS 3 Xrotation Yrotation Zrotation
					End Site
					{
						OFFSET -0.605125 24.528742 0.000000
					}
				}
			}
			JOINT Left_Butt
			{
				OFFSET -6.630234 1.326584 -3.183700
				CHANNELS 3 Xrotation Yrotation Zrotation
				End Site
				{
					OFFSET -0.498041 20.188049 0.000000
				}
			}
		}
		JOINT RightUpLeg
		{
			OFFSET -11.717000 -9.376404 -2.439400
			CHANNELS 3 Xrotation Yrotation Zrotation
			JOINT RightLeg
			{
				OFFSET -0.003241 -32.846912 2.110600
				CHANNELS 3 Xrotation Yrotation Zrotation
				JOINT RightFoot
				{
					OFFSET 0.003241 -32.065136 -0.570500
					CHANNELS 3 Xrotation Yrotation Zrotation
					JOINT RightToeBase
					{
						OFFSET -0.728300 -11.045901 13.180700
						CHANNELS 3 Xrotation Yrotation Zrotation
						End Site
						{
							OFFSET 0.000000 17.212593 0.000000
						}
					}
				}
				JOINT RightPantLeg
				{
					OFFSET 0.008142 -16.708982 -3.143700
					CHANNELS 3 Xrotation Yrotation Zrotation
					End Site
					{
						OFFSET 0.605088 24.528715 0.000000
					}
				}
			}
			JOINT Right_Butt
			{
				OFFSET 6.630732 1.326584 -3.183700
				CHANNELS 3 Xrotation Yrotation Zrotation
				End Site
				{
					OFFSET 0.498015 20.188240 0.000000
				}
			}
		}
	}
	JOINT Spine
	{
		OFFSET -0.062400 7.848404 3.918300
		CHANNELS 3 Xrotation Yrotation Zrotation
		JOINT Spine1
		{
			OFFSET -0.072800 11.422302 0.713400
			CHANNELS 3 Xrotation Yrotation Zrotation
			JOINT Spine2
			{
				OFFSET -0.083200 13.054001 -1.931600
				CHANNELS 3 Xrotation Yrotation Zrotation
				JOINT Neck
				{
					OFFSET -0.092200 14.121796 -5.138800
					CHANNELS 3 Xrotation Yrotation Zrotation
					JOINT Head
					{
						OFFSET 0.000200 10.447403 -0.842000
						CHANNELS 3 Xrotation Yrotation Zrotation
						JOINT Visor
						{
							OFFSET 0.457100 25.671204 16.550400
							CHANNELS 3 Xrotation Yrotation Zrotation
							End Site
							{
								OFFSET 0.000000 26.061493 0.000000
							}
						}
						JOINT HairMidA
						{
							OFFSET 0.459400 31.585403 8.437400
							CHANNELS 3 Xrotation Yrotation Zrotation
							End Site
							{
								OFFSET 0.000000 26.061493 0.000000
							}
						}
						JOINT HairMidB
						{
							OFFSET 0.464000 33.309204 -8.389700
							CHANNELS 3 Xrotation Yrotation Zrotation
							End Site
							{
								OFFSET 0.000000 26.061493 0.000000
							}
						}
						JOINT HairMidC
						{
							OFFSET 0.466600 27.991196 -17.375099
							CHANNELS 3 Xrotation Yrotation Zrotation
							End Site
							{
								OFFSET 0.000000 26.061493 0.000000
							}
						}
						JOINT HairMidD
						{
							OFFSET 0.467700 17.888092 -21.169500
							CHANNELS 3 Xrotation Yrotation Zrotation
							End Site
							{
								OFFSET 0.000000 26.061493 0.000000
							}
						}
						JOINT HairMidE
						{
							OFFSET 5.325700 3.514603 -14.369699
							CHANNELS 3 Xrotation Yrotation Zrotation
							End Site
							{
								OFFSET 0.000000 26.061493 0.000000
							}
						}
						JOINT HairMidF
						{
							OFFSET -4.394100 3.514603 -14.372400
							CHANNELS 3 Xrotation Yrotation Zrotation
							End Site
							{
								OFFSET 0.000000 26.061493 0.000000
							}
						}
						JOINT HairLeftA
						{
							OFFSET 15.319900 25.746506 2.623300
							CHANNELS 3 Xrotation Yrotation Zrotation
							End Site
							{
								OFFSET 0.000000 26.061493 0.000000
							}
						}
						JOINT HairLeftB
						{
							OFFSET 12.619500 29.289398 -8.731499
							CHANNELS 3 Xrotation Yrotation Zrotation
							End Site
							{
								OFFSET 0.000000 26.061493 0.000000
							}
						}
						JOINT HairLeftC
						{
							OFFSET 15.714800 15.959900 2.909800
							CHANNELS 3 Xrotation Yrotation Zrotation
							End Site
							{
								OFFSET 0.000000 26.061493 0.000000
							}
						}
						JOINT HairLeftD
						{
							OFFSET 16.101700 18.437408 -7.553200
							CHANNELS 3 Xrotation Yrotation Zrotation
							End Site
							{
								OFFSET 0.000000 26.061493 0.000000
							}
						}
						JOINT HairLeftE
						{
							OFFSET 9.731900 17.915009 -18.316799
							CHANNELS 3 Xrotation Yrotation Zrotation
							End Site
							{
								OFFSET 0.000000 26.061493 0.000000
							}
						}
						JOINT HairLeftF
						{
							OFFSET 11.204300 4.953598 -9.668100
							CHANNELS 3 Xrotation Yrotation Zrotation
							End Site
							{
								OFFSET 0.000000 26.061493 0.000000
							}
						}
						JOINT HairRightA
						{
							OFFSET -14.397900 25.746307 2.615100
							CHANNELS 3 Xrotation Yrotation Zrotation
							End Site
							{
								OFFSET 0.000000 26.061493 0.000000
							}
						}
						JOINT HairRightB
						{
							OFFSET -11.691200 29.289200 -8.738199
							CHANNELS 3 Xrotation Yrotation Zrotation
							End Site
							{
								OFFSET 0.000000 26.061493 0.000000
							}
						}
						JOINT HairRightC
						{
							OFFSET -14.792900 15.959702 2.901400
							CHANNELS 3 Xrotation Yrotation Zrotation
							End Site
							{
								OFFSET 0.000000 26.061493 0.000000
							}
						}
						JOINT HairRightD
						{
							OFFSET -15.174000 18.437195 -7.561900
							CHANNELS 3 Xrotation Yrotation Zrotation
							End Site
							{
								OFFSET 0.000000 26.061493 0.000000
							}
						}
						JOINT HairRightE
						{
							OFFSET -8.798200 17.914902 -18.322001
							CHANNELS 3 Xrotation Yrotation Zrotation
							End Site
							{
								OFFSET 0.000000 26.061493 0.000000
							}
						}
						JOINT HairRightF
						{
							OFFSET -10.275200 4.953506 -9.674099
							CHANNELS 3 Xrotation Yrotation Zrotation
							End Site
							{
								OFFSET 0.000000 26.061493 0.000000
							}
						}
					}
				}
				JOINT LeftShoulder
				{
					OFFSET 5.133500 7.341202 -1.867600
					CHANNELS 3 Xrotation Yrotation Zrotation
					JOINT LeftArm
					{
						OFFSET 8.072663 0.936867 -2.176600
						CHANNELS 3 Xrotation Yrotation Zrotation
						JOINT LeftForeArm
						{
							OFFSET 31.271999 0.000000 0.000000
							CHANNELS 3 Xrotation Yrotation Zrotation
							JOINT LeftHand
							{
								OFFSET 31.771030 0.000000 0.000000
								CHANNELS 3 Xrotation Yrotation Zrotation
								JOINT LeftHandThumb1
								{
									OFFSET 2.886520 -2.557846 4.416640
									CHANNELS 3 Xrotation Yrotation Zrotation
									JOINT LeftHandThumb2
									{
										OFFSET 2.371025 -1.368912 1.368911
										CHANNELS 3 Xrotation Yrotation Zrotation
										JOINT LeftHandThumb3
										{
											OFFSET 2.243378 -1.295212 1.295213
											CHANNELS 3 Xrotation Yrotation Zrotation
											End Site
											{
												OFFSET -0.332611 2.876945 0.020015
											}
										}
									}
								}
								JOINT LeftHandIndex1
								{
									OFFSET 8.568985 -0.641945 3.119977
									CHANNELS 3 Xrotation Yrotation Zrotation
									JOINT LeftHandIndex2
									{
										OFFSET 3.348503 0.000000 0.000000
										CHANNELS 3 Xrotation Yrotation Zrotation
										JOINT LeftHandIndex3
										{
											OFFSET 3.314552 0.000000 0.000000
											CHANNELS 3 Xrotation Yrotation Zrotation
											End Site
											{
												OFFSET -1.032898 3.075485 0.678796
											}
										}
									}
								}
								JOINT LeftHandMiddle1
								{
									OFFSET 8.124603 0.000000 0.000000
									CHANNELS 3 Xrotation Yrotation Zrotation
									JOINT LeftHandMiddle2
									{
										OFFSET 4.166275 0.000000 0.000000
										CHANNELS 3 Xrotation Yrotation Zrotation
										JOINT LeftHandMiddle3
										{
											OFFSET 3.018135 0.000000 0.000000
											CHANNELS 3 Xrotation Yrotation Zrotation
											End Site
											{
												OFFSET -1.032700 2.767982 0.617226
											}
										}
									}
								}
								JOINT LeftHandRing1
								{
									OFFSET 8.571686 -0.031357 -2.884048
									CHANNELS 3 Xrotation Yrotation Zrotation
									JOINT LeftHandRing2
									{
										OFFSET 3.671181 0.000000 0.000000
										CHANNELS 3 Xrotation Yrotation Zrotation
										JOINT LeftHandRing3
										{
											OFFSET 2.728851 0.000000 0.000000
											CHANNELS 3 Xrotation Yrotation Zrotation
											End Site
											{
												OFFSET -0.815796 2.539223 0.577389
											}
										}
									}
								}
								JOINT LeftHandPinky1
								{
									OFFSET 7.854515 -0.675232 -5.213020
									CHANNELS 3 Xrotation Yrotation Zrotation
									JOINT LeftHandPinky2
									{
										OFFSET 3.068596 0.000000 0.000000
										CHANNELS 3 Xrotation Yrotation Zrotation
										JOINT LeftHandPinky3
										{
											OFFSET 2.396042 0.000000 0.000000
											CHANNELS 3 Xrotation Yrotation Zrotation
											End Site
											{
												OFFSET -0.524597 2.267998 0.567429
											}
										}
									}
								}
							}
							JOINT LeftSleeve
							{
								OFFSET 19.684509 -0.200119 0.476146
								CHANNELS 3 Xrotation Yrotation Zrotation
								End Site
								{
									OFFSET -0.031017 25.731133 -0.002868
								}
							}
						}
					}
				}
				JOINT RightShoulder
				{
					OFFSET -4.395900 7.341202 -1.870200
					CHANNELS 3 Xrotation Yrotation Zrotation
					JOINT RightArm
					{
						OFFSET -8.071453 0.936867 -2.181100
						CHANNELS 3 Xrotation Yrotation Zrotation
						JOINT RightForeArm
						{
							OFFSET -31.272011 0.000000 0.000000
							CHANNELS 3 Xrotation Yrotation Zrotation
							JOINT RightHand
							{
								OFFSET -31.771019 0.000000 0.000000
								CHANNELS 3 Xrotation Yrotation Zrotation
								JOINT RightHandThumb1
								{
									OFFSET -2.886520 -2.557808 4.416626
									CHANNELS 3 Xrotation Yrotation Zrotation
									JOINT RightHandThumb2
									{
										OFFSET -2.371056 -1.368927 1.368928
										CHANNELS 3 Xrotation Yrotation Zrotation
										JOINT RightHandThumb3
										{
											OFFSET -2.243362 -1.295204 1.295206
											CHANNELS 3 Xrotation Yrotation Zrotation
											End Site
											{
												OFFSET 0.332642 2.876938 0.020047
											}
										}
									}
								}
								JOINT RightHandIndex1
								{
									OFFSET -8.568993 -0.641953 3.120017
									CHANNELS 3 Xrotation Yrotation Zrotation
									JOINT RightHandIndex2
									{
										OFFSET -3.348518 0.000000 0.000000
										CHANNELS 3 Xrotation Yrotation Zrotation
										JOINT RightHandIndex3
										{
											OFFSET -3.314552 0.000000 0.000000
											CHANNELS 3 Xrotation Yrotation Zrotation
											End Site
											{
												OFFSET 1.032898 3.075478 0.678804
											}
										}
									}
								}
								JOINT RightHandMiddle1
								{
									OFFSET -8.124588 0.000000 0.000000
									CHANNELS 3 Xrotation Yrotation Zrotation
									JOINT RightHandMiddle2
									{
										OFFSET -4.166275 0.000000 0.000000
										CHANNELS 3 Xrotation Yrotation Zrotation
										JOINT RightHandMiddle3
										{
											OFFSET -3.018097 0.000000 0.000000
											CHANNELS 3 Xrotation Yrotation Zrotation
											End Site
											{
												OFFSET 1.032700 2.767937 0.617197
											}
										}
									}
								}
								JOINT RightHandRing1
								{
									OFFSET -8.571747 -0.031349 -2.884061
									CHANNELS 3 Xrotation Yrotation Zrotation
									JOINT RightHandRing2
									{
										OFFSET -3.671204 0.000000 0.000000
										CHANNELS 3 Xrotation Yrotation Zrotation
										JOINT RightHandRing3
										{
											OFFSET -2.728874 0.000000 0.000000
											CHANNELS 3 Xrotation Yrotation Zrotation
											End Site
											{
												OFFSET 0.815804 2.539261 0.577413
											}
										}
									}
								}
								JOINT RightHandPinky1
								{
									OFFSET -7.854561 -0.675247 -5.212970
									CHANNELS 3 Xrotation Yrotation Zrotation
									JOINT RightHandPinky2
									{
										OFFSET -3.068550 0.000000 0.000000
										CHANNELS 3 Xrotation Yrotation Zrotation
										JOINT RightHandPinky3
										{
											OFFSET -2.395981 0.000000 0.000000
											CHANNELS 3 Xrotation Yrotation Zrotation
											End Site
											{
												OFFSET 0.524605 2.267952 0.567413
											}
										}
									}
								}
							}
							JOINT RightSleeve
							{
								OFFSET -19.684753 -0.200165 0.476065
								CHANNELS 3 Xrotation Yrotation Zrotation
								End Site
								{
									OFFSET 0.031342 25.731255 -0.002917
								}
							}
						}
					}
				}
				JOINT Hood
				{
					OFFSET 0.369700 14.447800 -5.317800
					CHANNELS 3 Xrotation Yrotation Zrotation
					JOINT Hood1
					{
						OFFSET 0.001700 -5.553802 -5.895100
						CHANNELS 3 Xrotation Yrotation Zrotation
						JOINT Hood2
						{
							OFFSET -0.000200 -8.380501 0.763600
							CHANNELS 3 Xrotation Yrotation Zrotation
							End Site
							{
								OFFSET 0.000000 8.415215 0.000000
							}
						}
					}
				}
				JOINT Left_Breast
				{
					OFFSET 5.682500 3.120102 3.188800
					CHANNELS 3 Xrotation Yrotation Zrotation
					End Site
					{
						OFFSET 0.000000 10.528564 0.000000
					}
				}
				JOINT Right_Breast
				{
					OFFSET -4.947600 3.120102 3.185900
					CHANNELS 3 Xrotation Yrotation Zrotation
					End Site
					{
						OFFSET 0.000000 10.528564 0.000000
					}
				}
				JOINT Whistle
				{
					OFFSET 0.368200 11.471298 0.095400
					CHANNELS 3 Xrotation Yrotation Zrotation
					JOINT Whistle1
					{
						OFFSET -0.002000 -6.349899 7.479800
						CHANNELS 3 Xrotation Yrotation Zrotation
						JOINT Whistle2
						{
							OFFSET -0.001300 -8.217598 4.717600
							CHANNELS 3 Xrotation Yrotation Zrotation
							End Site
							{
								OFFSET 0.000000 9.475479 0.000000
							}
						}
					}
				}
			}
		}
		JOINT Belly
		{
			OFFSET 0.212400 1.593002 3.163700
			CHANNELS 3 Xrotation Yrotation Zrotation
			End Site
			{
				OFFSET 0.000000 7.496635 0.000000
			}
		}
	}
	JOINT FitGrandmaFacialAnim_Joint
	{
		OFFSET 1.150000 -86.211197 -1.220100
		CHANNELS 3 Xrotation Yrotation Zrotation
		End Site
		{
			OFFSET 0.000000 31.666618 0.000000
		}
	}
}
MOTION
Frames: 4
Frame Time: 0.016667
-2.732628 77.739395 1.742817 12.325280 -55.857810 11.036371 0.000000 0.000000 -0.000000 -40.214549 8.646614 27.948552 42.179850 -11.106813 -10.112382 -10.548484 -1.326931 -3.659921 0.000000 -0.000002 0.000001 -0.000000 0.000001 -0.000001 -0.000001 -0.000003 -0.000001 -26.761979 -10.937914 -21.065895 52.077515 10.019041 -0.852257 -39.554920 -5.521332 10.930496 0.000001 0.000001 0.000000 0.000001 -0.000000 -0.000000 -0.000002 0.000001 -0.000001 11.711132 1.363386 -2.490417 -7.573169 6.733729 -2.520090 0.220139 5.397601 -4.595493 -12.580309 9.083991 1.899285 -4.773441 33.430743 5.660078 -0.000000 -0.000000 0.000000 -0.000000 -0.000000 0.000000 -0.000000 -0.000000 0.000000 -0.000000 -0.000000 0.000000 -0.000000 -0.000000 0.000000 -0.000000 -0.000000 0.000000 -0.000000 -0.000000 0.000000 -0.000000 -0.000000 0.000000 -0.000000 -0.000000 0.000000 -0.000000 -0.000000 0.000000 -0.000000 -0.000000 0.000000 -0.000000 -0.000000 0.000000 -0.000000 -0.000000 0.000000 -0.000000 -0.000000 0.000000 -0.000000 -0.000000 0.000000 -0.000000 -0.000000 0.000000 -0.000000 -0.000000 0.000000 -0.000000 -0.000000 0.000000 -0.000000 -0.000000 0.000000 -31.809707 13.410718 5.488766 38.429523 -24.730800 -35.179204 -0.000001 -63.060876 -0.000002 -30.857589 -7.137386 36.647855 -1.721963 5.255667 -13.188774 20.563172 52.534660 0.189410 -0.000001 0.000002 -0.000001 12.956308 -4.115585 -90.449716 8.952154 4.964040 -122.050986 0.000003 -0.000002 0.000002 9.405888 8.323700 -88.069060 9.453588 4.613518 -128.051731 -0.000003 0.000000 0.000000 6.580884 8.180133 -91.968094 8.173890 5.371765 -113.426035 -0.000003 -0.000003 -0.000000 -3.227063 20.112018 -75.571713 5.936824 5.850423 -90.841393 0.000004 0.000001 0.000001 -0.000001 0.000002 -0.000004 0.882301 7.689506 10.202002 7.550375 1.963478 57.853744 -0.000008 75.685176 0.000007 35.320841 10.055747 5.680940 -3.341836 -3.276464 13.774166 20.875164 -54.536083 -0.016344 -0.000001 0.000002 -0.000002 11.836796 5.289195 89.687433 7.123296 -3.951886 122.001645 0.000002 0.000001 0.000002 8.171030 -7.103202 87.309031 7.522348 -3.673024 127.998455 0.000001 -0.000002 0.000002 4.801486 -6.930781 91.181332 6.503998 -4.276075 113.385990 -0.000002 -0.000004 -0.000005 -4.344452 -18.765286 74.899199 4.725327 -4.656637 90.839788 -0.000001 -0.000003 0.000001 -0.000001 -0.000002 0.000002 0.000000 -0.000000 -0.000000 0.000000 -0.000000 -0.000000 0.000000 -0.000000 -0.000000 0.000000 -0.000000 -0.000000 0.000000 -0.000000 -0.000000 0.000000 -0.000000 -0.000000 0.000000 -0.000000 -0.000000 0.000000 -0.000000 -0.000000 -0.000000 0.000002 -0.000000 0.000000 0.000000 -0.000000 
-2.754186 77.747711 1.737156 12.279640 -55.856799 10.977800 -0.000000 0.000001 -0.000000 -40.170515 8.642144 27.988817 42.154954 -11.057433 -10.122163 -10.540199 -1.395069 -3.680640 0.000000 0.000001 -0.000000 -0.000000 -0.000001 -0.000001 0.000000 0.000003 0.000001 -26.695185 -10.968597 -21.025966 52.045058 10.016946 -0.852242 -39.563113 -5.521881 10.913715 0.000000 0.000000 -0.000000 0.000000 0.000003 -0.000002 0.000002 0.000001 -0.000000 11.711152 1.363201 -2.491141 -7.573175 6.733729 -2.520089 0.220136 5.397605 -4.595490 -12.569273 9.762732 2.145933 -4.477371 32.927871 5.264197 0.000000 -0.000000 -0.000000 0.000000 -0.000000 -0.000000 0.000000 -0.000000 -0.000000 0.000000 -0.000000 -0.000000 0.000000 -0.000000 -0.000000 0.000000 -0.000000 -0.000000 0.000000 -0.000000 -0.000000 0.000000 -0.000000 -0.000000 0.000000 -0.000000 -0.000000 0.000000 -0.000000 -0.000000 0.000000 -0.000000 -0.000000 0.000000 -0.000000 -0.000000 0.000000 -0.000000 -0.000000 0.000000 -0.000000 -0.000000 0.000000 -0.000000 -0.000000 0.000000 -0.000000 -0.000000 0.000000 -0.000000 -0.000000 0.000000 -0.000000 -0.000000 0.000000 -0.000000 -0.000000 -31.777810 12.952638 5.310878 38.682896 -24.912961 -34.934546 -0.000094 -62.511647 -0.000099 -31.157520 -7.391269 36.475273 -1.721953 5.255652 -13.188785 20.563147 52.534642 0.189403 -0.000000 -0.000004 0.000004 12.956305 -4.115607 -90.449736 8.952151 4.964040 -122.051000 0.000003 0.000000 0.000004 9.405883 8.323689 -88.069088 9.453602 4.613527 -128.051731 -0.000001 0.000000 -0.000005 6.580888 8.180106 -91.968094 8.173866 5.371755 -113.426021 -0.000001 -0.000000 -0.000002 -3.227064 20.112015 -75.571699 5.936827 5.850422 -90.841393 0.000002 -0.000002 0.000001 0.000003 -0.000001 0.000003 1.018006 7.684542 10.077996 7.270309 2.953152 57.421086 0.000044 75.186169 -0.000035 34.670952 9.864194 5.516742 -3.341827 -3.276467 13.774146 20.875177 -54.536062 -0.016314 -0.000006 -0.000002 -0.000003 11.836807 5.289190 89.687385 7.123270 -3.951903 122.001631 -0.000001 -0.000001 -0.000001 8.171030 -7.103214 87.308997 7.522340 -3.673035 127.998455 -0.000001 0.000003 -0.000003 4.801497 -6.930789 91.181318 6.504009 -4.276061 113.385990 0.000001 -0.000003 0.000001 -4.344442 -18.765301 74.899199 4.725337 -4.656642 90.839781 -0.000003 -0.000002 0.000001 -0.000000 0.000000 0.000001 -0.000000 0.000002 0.000000 -0.000000 0.000002 0.000000 -0.000000 0.000002 0.000000 -0.000000 0.000002 0.000000 -0.000000 0.000002 0.000000 -0.000000 0.000002 0.000001 0.000001 0.000000 0.000000 0.000001 0.000000 0.000000 -0.000001 -0.000005 0.000000 -0.000000 0.000001 -0.000000 
-2.782866 77.746910 1.735689 12.241072 -55.801488 10.926576 0.000000 -0.000003 0.000000 -40.168243 8.631571 28.016589 42.142633 -11.011416 -10.131651 -10.520695 -1.505777 -3.693189 0.000000 -0.000002 0.000000 -0.000001 0.000003 -0.000000 -0.000000 0.000002 -0.000001 -26.625163 -10.999051 -20.988785 52.041356 10.014732 -0.852216 -39.608790 -5.572400 10.884800 0.000000 0.000003 0.000000 0.000000 0.000000 0.000001 0.000004 -0.000002 0.000001 11.711176 1.362970 -2.491700 -7.573175 6.733749 -2.520090 0.220139 5.397586 -4.595492 -12.608601 10.491366 2.412571 -4.224774 32.405747 4.896689 -0.000000 -0.000000 -0.000000 -0.000000 -0.000000 -0.000000 -0.000000 -0.000000 -0.000000 -0.000000 -0.000000 -0.000000 -0.000000 -0.000000 -0.000000 -0.000000 -0.000000 -0.000000 -0.000000 -0.000000 -0.000000 -0.000000 -0.000000 -0.000000 -0.000000 -0.000000 -0.000000 -0.000000 -0.000000 -0.000000 -0.000000 -0.000000 -0.000000 -0.000000 -0.000000 -0.000000 -0.000000 -0.000000 -0.000000 -0.000000 -0.000000 -0.000000 -0.000000 -0.000000 -0.000000 -0.000000 -0.000000 -0.000000 -0.000000 -0.000000 -0.000000 -0.000000 -0.000000 -0.000000 -0.000000 -0.000000 -0.000000 -31.754079 12.465666 5.128833 39.012306 -25.126449 -34.726984 -0.000013 -61.838784 -0.000019 -31.459643 -7.671474 36.216159 -1.721939 5.255658 -13.188774 20.563154 52.534642 0.189427 -0.000003 0.000005 0.000004 12.956311 -4.115593 -90.449723 8.952143 4.964051 -122.050973 0.000004 0.000003 0.000001 9.405914 8.323694 -88.069067 9.453569 4.613486 -128.051731 0.000000 0.000000 0.000001 6.580906 8.180136 -91.968101 8.173875 5.371764 -113.426028 0.000002 0.000000 -0.000003 -3.227044 20.112018 -75.571699 5.936824 5.850412 -90.841407 -0.000003 0.000000 0.000001 0.000002 -0.000001 0.000001 1.163716 7.679711 9.947277 6.979112 3.931140 56.951743 0.000059 74.671726 -0.000064 33.974532 9.691029 5.366329 -3.341843 -3.276469 13.774172 20.875177 -54.536069 -0.016320 -0.000000 0.000002 0.000001 11.836806 5.289183 89.687439 7.123283 -3.951905 122.001631 0.000001 -0.000002 -0.000001 8.171013 -7.103206 87.309024 7.522351 -3.673044 127.998455 -0.000001 -0.000001 -0.000002 4.801487 -6.930790 91.181338 6.503997 -4.276072 113.386003 0.000004 0.000002 0.000001 -4.344445 -18.765296 74.899212 4.725323 -4.656631 90.839802 0.000003 -0.000003 0.000002 -0.000003 0.000003 0.000002 -0.000001 0.000000 -0.000001 -0.000001 0.000000 -0.000001 -0.000001 0.000000 -0.000001 -0.000001 0.000000 -0.000001 -0.000001 0.000000 -0.000001 -0.000001 0.000000 -0.000001 -0.000001 0.000000 -0.000000 -0.000001 0.000000 -0.000000 -0.000000 0.000001 0.000000 0.000000 -0.000003 0.000000 
-2.808332 77.753242 1.735125 12.207922 -55.783552 10.874454 0.000000 0.000001 0.000000 -40.142135 8.624180 28.056660 42.124167 -10.963021 -10.141619 -10.512850 -1.588192 -3.710176 -0.000000 0.000001 0.000000 -0.000000 0.000002 0.000000 -0.000001 0.000001 0.000000 -26.555639 -11.033279 -20.945487 52.007366 10.012374 -0.852217 -39.625107 -5.587797 10.866241 0.000001 -0.000001 0.000000 -0.000002 0.000000 0.000001 0.000001 0.000003 -0.000001 11.711184 1.362776 -2.492510 -7.573171 6.733752 -2.520092 0.220140 5.397582 -4.595489 -12.694470 11.267585 2.689842 -3.974852 31.886902 4.534252 0.000000 -0.000000 0.000000 0.000000 -0.000000 0.000000 0.000000 -0.000000 0.000000 0.000000 -0.000000 0.000000 0.000000 -0.000000 0.000000 0.000000 -0.000000 0.000000 0.000000 -0.000000 0.000000 0.000000 -0.000000 0.000000 0.000000 -0.000000 0.000000 0.000000 -0.000000 0.000000 0.000000 -0.000000 0.000000 0.000000 -0.000000 0.000000 0.000000 -0.000000 0.000000 0.000000 -0.000000 0.000000 0.000000 -0.000000 0.000000 0.000000 -0.000000 0.000000 0.000000 -0.000000 0.000000 0.000000 -0.000000 0.000000 0.000000 -0.000000 0.000000 -31.738349 11.953801 4.944355 39.461585 -25.312628 -34.536852 -0.000041 -61.081043 -0.000056 -31.790050 -7.989008 35.931791 -1.721953 5.255650 -13.188792 20.563164 52.534646 0.189394 -0.000002 0.000004 0.000001 12.956312 -4.115585 -90.449736 8.952141 4.964049 -122.050973 0.000002 0.000003 0.000003 9.405894 8.323693 -88.069081 9.453590 4.613512 -128.051745 -0.000000 -0.000001 0.000000 6.580903 8.180127 -91.968108 8.173871 5.371768 -113.426015 -0.000003 0.000002 0.000001 -3.227049 20.112004 -75.571699 5.936813 5.850419 -90.841393 -0.000004 -0.000001 -0.000001 -0.000002 0.000001 -0.000001 1.316087 7.674889 9.811790 6.684427 4.902609 56.464300 0.000099 74.142919 -0.000085 33.251072 9.531753 5.218465 -3.341833 -3.276479 13.774148 20.875164 -54.536059 -0.016333 0.000004 0.000002 0.000003 11.836819 5.289183 89.687405 7.123268 -3.951898 122.001631 -0.000002 0.000001 -0.000000 8.171034 -7.103214 87.309024 7.522343 -3.673018 127.998469 0.000000 -0.000001 -0.000004 4.801499 -6.930793 91.181311 6.504015 -4.276063 113.386024 -0.000002 -0.000004 -0.000001 -4.344455 -18.765308 74.899206 4.725345 -4.656648 90.839781 0.000003 0.000001 -0.000000 -0.000000 0.000004 -0.000002 0.000001 0.000000 -0.000000 0.000001 0.000000 -0.000000 0.000001 0.000000 -0.000000 0.000001 0.000000 -0.000000 0.000001 0.000000 -0.000000 0.000001 0.000000 -0.000000 0.000001 0.000000 -0.000001 0.000001 0.000000 -0.000001 0.000000 -0.000002 0.000001 0.000000 0.000001 0.000000 
